<svg width="400" height="300" viewBox="0 0 400 300" xmlns="http://www.w3.org/2000/svg">
  <rect width="400" height="300" fill="#e0f7fa"/>
  <!-- Hand Outline -->
  <path d="M150,300 L150,200 Q150,150 120,100 L110,90 Q100,80 110,70 L130,50 Q140,40 150,60 L160,80 L170,50 Q180,30 190,40 L200,60 L210,30 Q220,20 230,40 L240,70 L250,50 Q260,40 270,60 L270,100 Q270,150 250,200 L250,300 Z" fill="#ffccbc" stroke="#d84315" stroke-width="2"/>
  <!-- Acupoint (Shenmen) -->
  <circle cx="160" cy="220" r="8" fill="#e67e22" stroke="#fff" stroke-width="2"/>
  <text x="180" y="225" font-family="sans-serif" font-size="14" fill="#d84315" font-weight="bold">神門穴</text>
  <!-- Acupoint (Neiguan) -->
  <circle cx="200" cy="180" r="8" fill="#e67e22" stroke="#fff" stroke-width="2"/>
  <text x="220" y="185" font-family="sans-serif" font-size="14" fill="#d84315" font-weight="bold">內關穴</text>
</svg>